<?xml version="1.0" standalone="no"?>
<!DOCTYPE svg PUBLIC "-//W3C//DTD SVG 20010904//EN"
 "http://www.w3.org/TR/2001/REC-SVG-20010904/DTD/svg10.dtd">
<svg version="1.0" xmlns="http://www.w3.org/2000/svg"
 width="1279.000000pt" height="244.000000pt" viewBox="0 0 1279.000000 244.000000"
 preserveAspectRatio="xMidYMid meet">

<g transform="translate(0.000000,244.000000) scale(0.100000,-0.100000)"
fill="#000000" stroke="none">
<path d="M1025 2300 c-51 -5 -28 -7 84 -8 85 -1 152 0 150 2 -8 7 -167 11
-234 6z"/>
<path d="M5500 2299 c-55 -3 -17 -5 110 -6 195 0 220 4 60 9 -47 2 -123 0
-170 -3z"/>
<path d="M8408 2303 c7 -3 16 -2 19 1 4 3 -2 6 -13 5 -11 0 -14 -3 -6 -6z"/>
<path d="M11195 2300 c-3 -5 3 -10 15 -10 12 0 18 5 15 10 -3 6 -10 10 -15 10
-5 0 -12 -4 -15 -10z"/>
<path d="M8238 2293 c29 -2 74 -2 100 0 26 2 2 3 -53 3 -55 0 -76 -1 -47 -3z"/>
<path d="M8493 2293 c31 -2 83 -2 115 0 31 2 5 3 -58 3 -63 0 -89 -1 -57 -3z"/>
<path d="M11058 2293 c23 -2 61 -2 85 0 23 2 4 4 -43 4 -47 0 -66 -2 -42 -4z"/>
<path d="M11303 2293 c26 -2 68 -2 95 0 26 2 4 3 -48 3 -52 0 -74 -1 -47 -3z"/>
<path d="M913 2283 c9 -2 23 -2 30 0 6 3 -1 5 -18 5 -16 0 -22 -2 -12 -5z"/>
<path d="M1293 2283 c9 -2 23 -2 30 0 6 3 -1 5 -18 5 -16 0 -22 -2 -12 -5z"/>
<path d="M3115 2281 c-22 -3 57 -6 175 -6 118 0 195 3 170 7 -55 8 -290 8
-345 -1z"/>
<path d="M5325 2280 l-30 -8 30 0 c17 0 41 4 55 8 l25 8 -25 0 c-14 0 -38 -4
-55 -8z"/>
<path d="M5835 2280 c17 -4 46 -8 65 -8 l35 0 -40 9 c-22 4 -51 8 -65 7 -23 0
-22 -1 5 -8z"/>
<path d="M8060 2280 c-34 -7 -34 -7 -5 -8 17 -1 48 3 70 7 l40 9 -35 0 c-19
-1 -51 -4 -70 -8z"/>
<path d="M8715 2279 c22 -4 56 -8 75 -7 33 0 32 1 -10 9 -25 4 -58 7 -75 7
-26 0 -25 -1 10 -9z"/>
<path d="M10910 2280 l-35 -7 40 -1 c22 0 51 4 65 8 24 8 24 8 -5 8 -16 0 -46
-4 -65 -8z"/>
<path d="M11495 2279 c22 -4 56 -8 75 -7 33 0 32 1 -10 9 -25 4 -58 7 -75 7
-26 0 -25 -1 10 -9z"/>
<path d="M802 2261 c-29 -10 -56 -22 -60 -26 -4 -5 2 -5 13 0 11 4 34 11 50
15 64 18 90 28 70 28 -11 1 -44 -8 -73 -17z"/>
<path d="M1369 2265 c18 -8 43 -15 55 -14 20 0 20 1 1 8 -11 5 -36 11 -55 15
l-35 7 34 -16z"/>
<path d="M2947 2244 c-44 -14 -77 -28 -74 -31 3 -3 31 4 62 16 31 12 71 21 90
21 19 0 37 5 40 10 10 17 -36 10 -118 -16z"/>
<path d="M3605 2239 c50 -15 95 -27 100 -25 13 4 -150 56 -173 55 -9 0 24 -14
73 -30z"/>
<path d="M5250 2259 c0 -11 27 -12 34 -1 2 4 -4 9 -15 9 -10 1 -19 -2 -19 -8z"/>
<path d="M5935 2259 c-6 -9 -3 -10 10 -5 10 3 43 -1 73 -9 30 -9 56 -14 59
-11 3 2 -13 9 -34 15 -78 21 -100 23 -108 10z"/>
<path d="M7910 2253 c-36 -9 -60 -18 -55 -20 6 -2 44 5 85 16 41 11 66 19 55
19 -11 0 -49 -7 -85 -15z"/>
<path d="M8831 2266 c7 -7 142 -37 146 -33 2 3 -25 12 -61 21 -64 16 -93 20
-85 12z"/>
<path d="M10780 2250 c-30 -11 -41 -17 -25 -13 17 3 47 9 68 13 21 4 41 10 44
14 12 12 -33 5 -87 -14z"/>
<path d="M11612 2265 c4 -5 28 -11 53 -15 25 -4 42 -4 38 0 -11 11 -100 24
-91 15z"/>
<path d="M1445 2240 c-4 -6 4 -10 17 -10 13 0 43 -12 67 -25 24 -14 46 -23 48
-21 3 3 -14 14 -36 26 -65 33 -90 40 -96 30z"/>
<path d="M5155 2235 l-30 -14 30 6 c17 3 37 9 45 14 27 15 -11 10 -45 -6z"/>
<path d="M11723 2244 c10 -10 78 -34 97 -33 8 0 -1 6 -20 13 -59 22 -85 29
-77 20z"/>
<path d="M661 2204 c-29 -14 -52 -27 -49 -29 3 -3 31 8 64 24 71 36 61 39 -15
5z"/>
<path d="M7800 2220 c-9 -6 -10 -10 -3 -10 6 0 15 5 18 10 8 12 4 12 -15 0z"/>
<path d="M8990 2228 c3 -3 44 -21 91 -40 47 -19 113 -53 147 -76 33 -23 64
-42 68 -42 4 0 17 -8 28 -17 16 -13 15 -11 -3 9 -13 15 -28 25 -32 22 -5 -3
-9 -1 -9 5 0 12 -104 70 -185 104 -65 26 -113 43 -105 35z"/>
<path d="M10627 2203 c-37 -14 -66 -27 -64 -29 4 -4 138 44 146 52 9 9 -17 2
-82 -23z"/>
<path d="M6130 2212 c8 -5 26 -13 40 -16 17 -5 20 -4 10 2 -8 5 -26 13 -40 16
-17 5 -20 4 -10 -2z"/>
<path d="M3721 2207 c22 -17 119 -65 119 -59 0 7 -103 62 -117 62 -3 0 -4 -1
-2 -3z"/>
<path d="M5065 2200 c-3 -6 1 -7 9 -4 18 7 21 14 7 14 -6 0 -13 -4 -16 -10z"/>
<path d="M7758 2203 c7 -3 16 -2 19 1 4 3 -2 6 -13 5 -11 0 -14 -3 -6 -6z"/>
<path d="M11844 2203 c9 -9 89 -33 94 -29 3 3 -85 36 -96 36 -3 0 -2 -3 2 -7z"/>
<path d="M7710 2190 c-8 -5 -10 -10 -5 -10 6 0 17 5 25 10 8 5 11 10 5 10 -5
0 -17 -5 -25 -10z"/>
<path d="M2785 2180 c-3 -5 -2 -10 4 -10 5 0 13 5 16 10 3 6 2 10 -4 10 -5 0
-13 -4 -16 -10z"/>
<path d="M6200 2180 c0 -5 7 -10 15 -10 18 0 103 -46 131 -71 11 -11 25 -19
31 -19 24 0 183 -195 183 -226 0 -3 6 -20 14 -37 8 -18 21 -50 29 -72 9 -22
16 -34 16 -28 1 15 -41 127 -60 163 -63 116 -177 223 -306 289 -48 24 -53 25
-53 11z"/>
<path d="M1615 2158 c16 -13 39 -32 51 -43 109 -100 112 -103 59 -47 -27 30
-70 67 -95 83 -25 17 -32 20 -15 7z"/>
<path d="M4994 2165 c-10 -8 -14 -15 -8 -15 6 0 17 7 24 15 16 19 9 19 -16 0z"/>
<path d="M7650 2165 c-14 -8 -20 -14 -15 -14 6 0 21 6 35 14 14 8 21 14 15 14
-5 0 -21 -6 -35 -14z"/>
<path d="M563 2149 c-35 -22 -46 -37 -15 -20 22 13 58 40 52 41 -3 0 -20 -10
-37 -21z"/>
<path d="M2750 2160 c-9 -6 -10 -10 -3 -10 6 0 15 5 18 10 8 12 4 12 -15 0z"/>
<path d="M11950 2166 c0 -5 109 -56 119 -56 8 1 -101 59 -111 60 -5 0 -8 -2
-8 -4z"/>
<path d="M10505 2150 c-3 -6 1 -7 9 -4 18 7 21 14 7 14 -6 0 -13 -4 -16 -10z"/>
<path d="M2678 2120 c-25 -16 -49 -34 -53 -40 -4 -7 18 5 49 26 48 32 64 45
54 44 -2 0 -24 -14 -50 -30z"/>
<path d="M4930 2132 c-41 -27 -94 -74 -109 -96 -8 -12 4 -4 27 18 27 25 46 37
57 32 10 -4 14 -2 9 5 -3 6 6 22 22 35 34 27 30 30 -6 6z"/>
<path d="M7583 2138 c-13 -6 -23 -15 -23 -20 0 -7 31 8 59 29 10 7 -16 1 -36
-9z"/>
<path d="M3881 2117 c50 -34 59 -39 59 -33 0 7 -73 56 -84 56 -5 0 6 -10 25
-23z"/>
<path d="M10414 2102 c-33 -21 -86 -65 -119 -97 -33 -31 -51 -51 -40 -44 11 8
24 20 28 27 15 23 137 110 185 131 22 11 29 21 14 21 -5 0 -36 -17 -68 -38z"/>
<path d="M494 2099 c-19 -22 -19 -22 4 -10 12 6 22 16 22 21 0 15 -5 12 -26
-11z"/>
<path d="M7514 2096 c-45 -20 -50 -36 -7 -21 21 7 39 18 41 24 4 13 4 13 -34
-3z"/>
<path d="M12081 2104 c0 -5 31 -29 69 -54 38 -25 87 -65 107 -88 21 -24 53
-60 71 -80 l33 -37 -20 35 c-31 53 -144 157 -233 215 -16 9 -28 13 -27 9z"/>
<path d="M451 2061 c-8 -9 -26 -29 -40 -46 -14 -16 -6 -11 19 12 24 23 42 44
40 47 -3 2 -11 -3 -19 -13z"/>
<path d="M3950 2077 c0 -4 37 -44 83 -89 109 -109 173 -207 234 -355 9 -24 18
-41 21 -39 9 10 -66 166 -118 244 -48 72 -220 259 -220 239z"/>
<path d="M2585 2050 c-3 -5 -2 -10 4 -10 5 0 13 5 16 10 3 6 2 10 -4 10 -5 0
-13 -4 -16 -10z"/>
<path d="M7347 1967 c-41 -40 -79 -84 -86 -97 -11 -23 -11 -24 3 -6 28 34 82
91 117 122 36 30 55 54 45 54 -3 0 -39 -33 -79 -73z"/>
<path d="M992 2022 c-13 -4 41 -7 120 -7 133 0 147 -2 198 -26 81 -38 152 -99
199 -171 22 -34 41 -58 41 -52 0 25 -94 141 -144 176 -99 70 -146 85 -276 86
-63 0 -125 -2 -138 -6z"/>
<path d="M2524 1995 c-21 -19 -33 -35 -28 -35 6 0 25 16 44 35 19 19 31 35 28
35 -3 0 -23 -16 -44 -35z"/>
<path d="M9395 1975 c19 -27 45 -61 56 -75 l20 -25 -14 30 c-8 17 -34 50 -56
75 l-42 45 36 -50z"/>
<path d="M938 2003 c7 -3 16 -2 19 1 4 3 -2 6 -13 5 -11 0 -14 -3 -6 -6z"/>
<path d="M1800 1965 c17 -27 28 -56 25 -63 -2 -7 0 -10 5 -7 9 6 22 -17 44
-79 3 -10 9 -16 12 -13 9 8 -61 146 -91 182 -22 25 -21 22 5 -20z"/>
<path d="M4769 1983 l-24 -28 28 24 c25 23 32 31 24 31 -2 0 -14 -12 -28 -27z"/>
<path d="M848 1974 c-16 -8 -28 -17 -28 -20 0 -2 12 2 28 9 15 8 34 17 42 20
13 5 13 5 0 6 -8 0 -27 -7 -42 -15z"/>
<path d="M349 1938 c-37 -52 -72 -118 -65 -125 2 -3 14 15 25 39 11 23 29 53
41 66 11 12 18 22 14 22 -4 0 1 9 11 20 10 11 15 20 12 20 -4 0 -21 -19 -38
-42z"/>
<path d="M3173 1963 c9 -2 25 -2 35 0 9 3 1 5 -18 5 -19 0 -27 -2 -17 -5z"/>
<path d="M3383 1963 c9 -2 25 -2 35 0 9 3 1 5 -18 5 -19 0 -27 -2 -17 -5z"/>
<path d="M3128 1953 c7 -3 16 -2 19 1 4 3 -2 6 -13 5 -11 0 -14 -3 -6 -6z"/>
<path d="M3448 1953 c7 -3 16 -2 19 1 4 3 -2 6 -13 5 -11 0 -14 -3 -6 -6z"/>
<path d="M786 1939 c-22 -14 -59 -49 -54 -54 2 -2 21 12 42 31 41 35 44 41 12
23z"/>
<path d="M2451 1915 c-17 -20 -31 -41 -31 -47 0 -6 1 -9 3 -7 2 2 18 23 36 47
40 51 35 55 -8 7z"/>
<path d="M3076 1941 c-4 -5 3 -7 14 -4 23 6 26 13 6 13 -8 0 -17 -4 -20 -9z"/>
<path d="M3490 1943 c8 -3 43 -18 78 -34 67 -30 79 -26 15 5 -21 10 -46 22
-55 27 -10 5 -26 9 -35 8 -14 0 -15 -2 -3 -6z"/>
<path d="M4728 1933 c-21 -24 -81 -144 -75 -150 3 -2 17 22 32 54 14 32 36 68
47 80 12 13 19 25 16 28 -2 3 -12 -3 -20 -12z"/>
<path d="M5485 1940 c-22 -4 16 -5 85 -2 69 3 127 6 129 8 7 7 -172 1 -214 -6z"/>
<path d="M3025 1925 c-16 -7 -23 -14 -14 -14 8 -1 24 6 35 14 24 18 18 18 -21
0z"/>
<path d="M5723 1933 c9 -2 25 -2 35 0 9 3 1 5 -18 5 -19 0 -27 -2 -17 -5z"/>
<path d="M10171 1873 c-61 -83 -106 -163 -92 -163 6 0 11 6 11 13 0 15 89 152
120 185 12 13 20 26 17 29 -3 2 -28 -26 -56 -64z"/>
<path d="M5322 1911 c-86 -25 -144 -56 -184 -99 l-33 -36 38 32 c54 46 126 80
215 102 42 10 66 19 52 19 -14 0 -53 -9 -88 -18z"/>
<path d="M5830 1915 c30 -7 56 -12 58 -10 6 6 -62 25 -87 24 -16 0 -4 -6 29
-14z"/>
<path d="M5900 1902 c0 -4 26 -18 58 -31 38 -17 78 -46 122 -90 45 -46 56 -53
35 -26 -16 22 -43 51 -59 65 -46 39 -156 97 -156 82z"/>
<path d="M2910 1862 c-62 -43 -148 -126 -169 -163 -7 -13 16 8 53 47 36 40 90
88 121 108 30 21 55 39 55 42 0 7 -2 5 -60 -34z"/>
<path d="M8333 1893 c9 -2 23 -2 30 0 6 3 -1 5 -18 5 -16 0 -22 -2 -12 -5z"/>
<path d="M8105 1880 c-17 -4 5 -5 50 -2 44 2 82 6 84 8 8 7 -104 2 -134 -6z"/>
<path d="M8431 1886 c2 -2 40 -6 84 -8 45 -3 67 -2 50 2 -30 8 -142 13 -134 6z"/>
<path d="M3665 1859 c17 -13 48 -40 69 -59 35 -31 37 -32 22 -8 -17 26 -34 39
-93 74 -26 15 -26 14 2 -7z"/>
<path d="M8000 1860 c-13 -9 -13 -10 0 -9 8 1 26 5 40 9 l25 8 -25 1 c-14 0
-32 -4 -40 -9z"/>
<path d="M8660 1850 c36 -10 66 -17 68 -15 6 5 -91 35 -112 34 -12 0 8 -9 44
-19z"/>
<path d="M9471 1865 c0 -5 8 -26 19 -45 11 -19 19 -30 19 -25 0 6 -8 26 -19
45 -11 19 -19 31 -19 25z"/>
<path d="M11193 1853 c31 -2 83 -2 115 0 31 2 5 3 -58 3 -63 0 -89 -1 -57 -3z"/>
<path d="M649 1802 c-38 -51 -84 -149 -93 -197 -4 -16 2 -7 12 20 28 73 67
148 98 184 14 18 25 34 22 36 -2 3 -20 -17 -39 -43z"/>
<path d="M2383 1822 c-28 -37 -96 -173 -90 -179 3 -2 17 20 31 49 14 29 30 60
35 68 5 8 12 22 15 30 3 8 13 25 22 38 9 12 14 22 12 22 -2 0 -14 -13 -25 -28z"/>
<path d="M7940 1840 c-18 -12 -2 -12 25 0 13 6 15 9 5 9 -8 0 -22 -4 -30 -9z"/>
<path d="M10985 1840 c-12 -5 5 -7 45 -3 36 3 67 7 69 9 9 8 -95 2 -114 -6z"/>
<path d="M11462 1834 c42 -7 100 -23 129 -34 63 -23 78 -20 18 4 -56 22 -157
46 -194 45 -16 0 5 -7 47 -15z"/>
<path d="M12391 1780 c17 -34 34 -59 36 -56 5 5 -55 116 -63 116 -2 0 10 -27
27 -60z"/>
<path d="M7862 1807 c-42 -22 -177 -136 -170 -143 2 -2 30 21 63 52 32 30 83
68 114 84 31 16 51 29 46 30 -6 0 -30 -10 -53 -23z"/>
<path d="M10918 1823 c6 -2 18 -2 25 0 6 3 1 5 -13 5 -14 0 -19 -2 -12 -5z"/>
<path d="M7186 1749 c-21 -38 -36 -73 -33 -76 3 -3 12 10 20 29 8 19 26 53 41
76 14 23 23 42 18 42 -4 0 -25 -32 -46 -71z"/>
<path d="M8771 1816 c10 -9 69 -36 69 -32 0 6 -55 36 -66 36 -4 0 -5 -2 -3 -4z"/>
<path d="M10830 1800 c-8 -5 -10 -10 -5 -10 6 0 17 5 25 10 8 5 11 10 5 10 -5
0 -17 -5 -25 -10z"/>
<path d="M255 1754 c-25 -67 -55 -167 -54 -184 0 -15 14 24 39 110 8 25 17 50
20 55 9 12 22 65 17 65 -3 0 -12 -21 -22 -46z"/>
<path d="M1895 1770 c16 -70 17 -91 5 -105 -10 -13 -9 -15 9 -15 20 0 21 4 15
38 -4 20 -13 53 -21 72 -7 19 -11 24 -8 10z"/>
<path d="M10766 1775 c-25 -19 -9 -19 24 0 14 8 19 14 10 14 -8 0 -24 -6 -34
-14z"/>
<path d="M8880 1754 c44 -35 101 -93 118 -119 7 -11 6 -6 -2 11 -16 33 -89
105 -127 124 -15 7 -10 1 11 -16z"/>
<path d="M9510 1770 c0 -8 5 -22 10 -30 9 -13 10 -13 10 0 0 8 -5 22 -10 30
-9 13 -10 13 -10 0z"/>
<path d="M4636 1744 c-4 -14 -5 -28 -3 -31 3 -2 8 8 11 23 4 14 5 28 3 31 -3
2 -8 -8 -11 -23z"/>
<path d="M5061 1706 c-52 -109 -36 -217 45 -303 l46 -48 -41 49 c-42 50 -71
124 -71 181 0 44 24 118 49 154 13 17 18 31 12 31 -5 0 -24 -29 -40 -64z"/>
<path d="M11680 1766 c0 -2 22 -18 49 -36 46 -29 108 -86 146 -135 l16 -20
-10 20 c-21 41 -129 142 -173 162 -16 7 -28 11 -28 9z"/>
<path d="M3791 1745 c14 -25 71 -95 79 -95 7 0 -7 19 -67 85 -10 12 -15 16
-12 10z"/>
<path d="M10710 1743 c-8 -3 -28 -21 -45 -41 l-29 -37 29 26 c17 14 41 33 55
42 24 17 21 20 -10 10z"/>
<path d="M1560 1729 c0 -4 7 -22 15 -40 8 -19 14 -27 14 -19 0 14 -28 72 -29
59z"/>
<path d="M9531 1710 c0 -8 4 -24 9 -35 5 -13 9 -14 9 -5 0 8 -4 24 -9 35 -5
13 -9 14 -9 5z"/>
<path d="M12435 1695 c4 -11 11 -33 15 -50 13 -50 32 -96 37 -91 6 6 -33 125
-48 146 -9 12 -9 11 -4 -5z"/>
<path d="M4615 1655 c-3 -26 -4 -49 -2 -52 3 -3 9 16 12 42 4 25 5 48 2 51 -2
3 -8 -16 -12 -41z"/>
<path d="M10060 1679 c-7 -11 -10 -23 -7 -25 2 -2 9 7 15 21 14 30 7 33 -8 4z"/>
<path d="M6184 1620 c12 -34 22 -55 24 -47 3 13 -33 107 -41 107 -2 0 5 -27
17 -60z"/>
<path d="M2708 1648 c-25 -42 -41 -78 -37 -83 3 -2 17 20 32 50 27 56 30 73 5
33z"/>
<path d="M6632 1655 c0 -11 4 -31 8 -45 6 -20 8 -21 8 -5 0 11 -4 31 -8 45 -6
20 -8 21 -8 5z"/>
<path d="M7132 1635 c-7 -14 -12 -31 -12 -38 1 -7 7 3 16 22 17 39 13 54 -4
16z"/>
<path d="M1823 1643 c9 -2 23 -2 30 0 6 3 -1 5 -18 5 -16 0 -22 -2 -12 -5z"/>
<path d="M7660 1614 c-12 -19 -21 -37 -18 -39 2 -2 14 14 26 36 28 49 22 52
-8 3z"/>
<path d="M9552 1625 c0 -16 4 -43 8 -60 11 -42 11 -1 1 50 -7 34 -9 35 -9 10z"/>
<path d="M10603 1638 c-20 -26 -26 -41 -15 -34 12 7 36 46 29 46 -3 0 -9 -6
-14 -12z"/>
<path d="M1590 1631 c0 -5 5 -13 10 -16 6 -3 10 -2 10 4 0 5 -4 13 -10 16 -5
3 -10 2 -10 -4z"/>
<path d="M1768 1633 c6 -2 18 -2 25 0 6 3 1 5 -13 5 -14 0 -19 -2 -12 -5z"/>
<path d="M3867 1622 c3 -12 9 -25 14 -28 14 -8 11 10 -6 32 -13 18 -14 18 -8
-4z"/>
<path d="M10036 1614 c-4 -14 -5 -28 -3 -31 3 -2 8 8 11 23 4 14 5 28 3 31 -3
2 -8 -8 -11 -23z"/>
<path d="M1683 1623 c9 -2 25 -2 35 0 9 3 1 5 -18 5 -19 0 -27 -2 -17 -5z"/>
<path d="M2276 1615 c-9 -26 -7 -32 5 -12 6 10 9 21 6 23 -2 3 -7 -2 -11 -11z"/>
<path d="M1628 1613 c6 -2 18 -2 25 0 6 3 1 5 -13 5 -14 0 -19 -2 -12 -5z"/>
<path d="M9020 1588 c0 -3 7 -21 15 -39 10 -24 14 -28 14 -14 0 11 -6 29 -14
39 -8 11 -15 17 -15 14z"/>
<path d="M2261 1564 c0 -11 3 -14 6 -6 3 7 2 16 -1 19 -3 4 -6 -2 -5 -13z"/>
<path d="M3891 1573 c0 -4 4 -17 9 -28 8 -19 9 -19 9 2 1 12 -3 25 -9 28 -5 3
-10 3 -9 -2z"/>
<path d="M4291 1570 c0 -8 4 -22 9 -30 12 -18 12 -2 0 25 -6 13 -9 15 -9 5z"/>
<path d="M6646 1565 c-3 -8 -1 -15 4 -15 6 0 10 7 10 15 0 8 -2 15 -4 15 -2 0
-6 -7 -10 -15z"/>
<path d="M540 1569 c0 -2 -7 -42 -15 -89 -16 -88 -20 -380 -7 -454 4 -21 7 64
7 190 0 155 4 248 13 287 8 32 11 61 8 64 -3 4 -6 4 -6 2z"/>
<path d="M11918 1518 c15 -31 28 -55 30 -53 5 5 -24 68 -42 90 -9 11 -3 -5 12
-37z"/>
<path d="M7620 1541 c-19 -37 -70 -176 -70 -191 1 -8 16 26 34 75 18 50 38
100 45 113 6 12 9 22 7 22 -3 0 -10 -9 -16 -19z"/>
<path d="M191 1534 c0 -11 3 -14 6 -6 3 7 2 16 -1 19 -3 4 -6 -2 -5 -13z"/>
<path d="M6211 1535 c-1 -38 11 -44 69 -35 l55 8 -51 1 c-42 1 -53 5 -62 24
-10 20 -11 21 -11 2z"/>
<path d="M6568 1543 c7 -3 16 -2 19 1 4 3 -2 6 -13 5 -11 0 -14 -3 -6 -6z"/>
<path d="M7096 1535 c-9 -26 -7 -32 5 -12 6 10 9 21 6 23 -2 3 -7 -2 -11 -11z"/>
<path d="M6450 1530 c-27 -6 -29 -8 -10 -8 14 -1 43 3 65 7 33 7 35 9 10 9
-16 -1 -46 -4 -65 -8z"/>
<path d="M12491 1513 c-1 -17 4 -35 9 -38 11 -7 11 9 0 45 -8 24 -8 24 -9 -7z"/>
<path d="M10536 1515 c-3 -9 -5 -29 -5 -43 1 -20 3 -17 9 13 8 43 7 57 -4 30z"/>
<path d="M4312 1505 c0 -11 4 -31 8 -45 6 -20 8 -21 8 -5 0 11 -4 31 -8 45 -6
20 -8 21 -8 5z"/>
<path d="M6353 1513 c9 -2 25 -2 35 0 9 3 1 5 -18 5 -19 0 -27 -2 -17 -5z"/>
<path d="M2236 1484 c-4 -14 -5 -28 -3 -31 3 -2 8 8 11 23 4 14 5 28 3 31 -3
2 -8 -8 -11 -23z"/>
<path d="M2636 1495 c-3 -9 -6 -26 -5 -38 1 -16 4 -12 10 12 10 34 6 55 -5 26z"/>
<path d="M9056 1465 c4 -27 8 -52 10 -54 8 -9 2 65 -7 84 -6 13 -7 4 -3 -30z"/>
<path d="M176 1454 c-7 -55 -8 -109 -1 -103 6 7 18 149 12 149 -2 0 -7 -21
-11 -46z"/>
<path d="M3921 1474 c0 -11 3 -14 6 -6 3 7 2 16 -1 19 -3 4 -6 -2 -5 -13z"/>
<path d="M9573 1410 c0 -47 2 -66 4 -42 2 23 2 61 0 85 -2 23 -4 4 -4 -43z"/>
<path d="M7075 1460 c-4 -12 -5 -24 -2 -27 3 -2 8 5 12 17 4 12 5 24 2 27 -3
2 -8 -5 -12 -17z"/>
<path d="M4612 1445 c0 -16 2 -22 5 -12 2 9 2 23 0 30 -3 6 -5 -1 -5 -18z"/>
<path d="M10004 1350 c0 -69 1 -97 3 -62 2 34 2 90 0 125 -2 34 -3 6 -3 -63z"/>
<path d="M3937 1410 c3 -25 7 -47 9 -49 8 -9 2 55 -6 74 -6 13 -7 5 -3 -25z"/>
<path d="M12512 1422 c4 -27 1 -35 -16 -42 -19 -8 -18 -9 7 -9 27 -1 28 0 21
37 -8 47 -18 58 -12 14z"/>
<path d="M11970 1373 c9 -37 24 -69 31 -71 9 -2 10 -1 3 5 -5 4 -16 34 -24 66
-7 32 -17 60 -20 62 -4 3 0 -25 10 -62z"/>
<path d="M2616 1408 c-3 -13 -5 -39 -5 -58 1 -28 3 -25 10 19 9 55 6 80 -5 39z"/>
<path d="M2216 1405 c-3 -9 -6 -26 -5 -38 1 -14 4 -9 9 13 9 37 7 52 -4 25z"/>
<path d="M4331 1404 c0 -11 3 -14 6 -6 3 7 2 16 -1 19 -3 4 -6 -2 -5 -13z"/>
<path d="M7061 1403 c-1 -16 5 -23 17 -23 10 0 13 3 6 8 -6 4 -14 14 -17 22
-4 10 -6 8 -6 -7z"/>
<path d="M4622 1380 c0 -14 2 -19 5 -12 2 6 2 18 0 25 -3 6 -5 1 -5 -13z"/>
<path d="M9072 1265 c-1 -76 2 -135 6 -130 4 6 5 69 2 140 l-6 130 -2 -140z"/>
<path d="M7104 1379 c-3 -5 9 -9 25 -9 17 0 31 2 31 4 0 8 -51 13 -56 5z"/>
<path d="M4342 1360 c0 -14 2 -19 5 -12 2 6 2 18 0 25 -3 6 -5 1 -5 -13z"/>
<path d="M10530 1356 c0 -14 4 -27 8 -30 5 -3 6 8 4 25 -5 35 -12 38 -12 5z"/>
<path d="M7171 1366 c2 -2 36 -6 74 -9 44 -4 59 -3 40 2 -30 9 -122 14 -114 7z"/>
<path d="M12345 1360 l-30 -8 30 -1 c17 0 37 4 45 9 13 9 13 10 0 9 -8 -1 -28
-5 -45 -9z"/>
<path d="M12423 1363 c9 -2 23 -2 30 0 6 3 -1 5 -18 5 -16 0 -22 -2 -12 -5z"/>
<path d="M4631 1340 c0 -8 4 -22 9 -30 12 -18 12 -2 0 25 -6 13 -9 15 -9 5z"/>
<path d="M5170 1342 c0 -6 9 -12 20 -15 11 -3 20 -3 20 -1 0 2 -9 8 -20 14
-11 6 -20 7 -20 2z"/>
<path d="M7360 1339 c25 -4 56 -7 70 -7 l25 0 -25 8 c-14 4 -45 8 -70 8 l-45
-1 45 -8z"/>
<path d="M12210 1340 c-50 -11 1 -11 60 -1 41 8 42 8 10 8 -19 0 -51 -3 -70
-7z"/>
<path d="M164 1215 c0 -66 1 -92 3 -57 2 34 2 88 0 120 -2 31 -3 3 -3 -63z"/>
<path d="M7470 1326 c0 -2 18 -6 40 -8 22 -2 40 0 40 4 0 5 -18 8 -40 8 -22 0
-40 -2 -40 -4z"/>
<path d="M12065 1319 c-20 -5 -9 -6 30 -2 33 3 62 7 64 9 8 7 -63 2 -94 -7z"/>
<path d="M2197 1291 c-4 -18 -7 -50 -6 -70 1 -36 1 -36 10 9 5 25 8 56 7 70
-3 22 -4 21 -11 -9z"/>
<path d="M3951 1304 c0 -11 3 -14 6 -6 3 7 2 16 -1 19 -3 4 -6 -2 -5 -13z"/>
<path d="M4352 1295 c0 -16 2 -22 5 -12 2 9 2 23 0 30 -3 6 -5 -1 -5 -18z"/>
<path d="M5225 1310 c6 -10 74 -34 80 -28 2 2 -16 11 -41 21 -25 9 -42 12 -39
7z"/>
<path d="M9573 1280 c0 -25 2 -35 4 -22 2 12 2 32 0 45 -2 12 -4 2 -4 -23z"/>
<path d="M10550 1294 c0 -6 7 -19 16 -30 14 -18 14 -18 3 6 -14 31 -19 36 -19
24z"/>
<path d="M4650 1285 c0 -5 5 -17 10 -25 5 -8 10 -10 10 -5 0 6 -5 17 -10 25
-5 8 -10 11 -10 5z"/>
<path d="M2653 1263 c15 -2 37 -2 50 0 12 2 0 4 -28 4 -27 0 -38 -2 -22 -4z"/>
<path d="M3858 1263 c7 -3 16 -2 19 1 4 3 -2 6 -13 5 -11 0 -14 -3 -6 -6z"/>
<path d="M3900 1266 c0 -9 30 -14 35 -6 4 6 -3 10 -14 10 -12 0 -21 -2 -21 -4z"/>
<path d="M5388 1253 c7 -3 16 -2 19 1 4 3 -2 6 -13 5 -11 0 -14 -3 -6 -6z"/>
<path d="M5421 1246 c2 -3 38 -14 79 -26 118 -34 116 -34 105 -23 -5 5 -47 19
-91 31 -82 22 -101 26 -93 18z"/>
<path d="M4356 1203 c9 -52 14 -54 14 -5 0 23 -5 42 -10 42 -7 0 -8 -14 -4
-37z"/>
<path d="M4670 1234 c0 -11 52 -94 63 -101 7 -4 3 6 -7 22 -11 17 -26 42 -34
58 -13 25 -22 34 -22 21z"/>
<path d="M10589 1223 c12 -24 31 -39 31 -25 0 5 -10 17 -21 28 -22 19 -22 19
-10 -3z"/>
<path d="M10012 1200 c0 -14 2 -19 5 -12 2 6 2 18 0 25 -3 6 -5 1 -5 -13z"/>
<path d="M10657 1149 c18 -18 35 -30 38 -27 3 3 -11 18 -32 33 l-38 28 32 -34z"/>
<path d="M2184 1025 c0 -82 2 -115 3 -72 2 43 2 110 0 150 -1 40 -3 5 -3 -78z"/>
<path d="M5725 1160 c11 -5 27 -9 35 -9 9 0 8 4 -5 9 -11 5 -27 9 -35 9 -9 0
-8 -4 5 -9z"/>
<path d="M10024 1138 c9 -37 25 -78 30 -78 5 0 -24 92 -32 100 -3 3 -2 -7 2
-22z"/>
<path d="M5835 1130 c33 -11 74 -22 90 -24 17 -3 3 3 -30 14 -33 11 -73 22
-90 24 -16 3 -3 -3 30 -14z"/>
<path d="M9575 755 c0 -220 1 -309 2 -197 2 112 2 292 0 400 -1 108 -2 17 -2
-203z"/>
<path d="M4373 1055 c0 -38 2 -53 4 -32 2 20 2 52 0 70 -2 17 -4 1 -4 -38z"/>
<path d="M8965 1105 c-22 -8 -31 -13 -20 -13 11 0 36 6 55 13 45 17 18 17 -35
0z"/>
<path d="M10715 1110 c7 -11 76 -42 81 -37 2 2 -17 13 -42 25 -25 12 -43 18
-39 12z"/>
<path d="M173 1045 c-1 -27 3 -63 7 -80 l8 -30 0 30 c0 17 -3 53 -8 80 l-7 50
0 -50z"/>
<path d="M4818 1041 c50 -49 130 -106 138 -99 2 2 -18 18 -44 36 -26 17 -69
50 -97 73 l-50 42 53 -52z"/>
<path d="M6060 1065 c41 -14 80 -24 85 -24 16 1 -88 36 -126 43 -19 3 0 -5 41
-19z"/>
<path d="M8870 1080 c-24 -8 -24 -8 7 -9 17 -1 35 4 38 9 7 11 -9 11 -45 0z"/>
<path d="M8725 1050 c-44 -10 -71 -18 -60 -19 22 -1 167 28 174 35 8 8 -33 2
-114 -16z"/>
<path d="M10845 1050 c22 -11 49 -19 60 -19 13 0 7 5 -15 13 -62 23 -86 26
-45 6z"/>
<path d="M10070 1005 c12 -27 26 -54 31 -60 6 -5 1 13 -11 40 -12 28 -26 55
-31 60 -6 6 -1 -12 11 -40z"/>
<path d="M6195 1020 c3 -5 14 -10 23 -10 15 0 15 2 2 10 -20 13 -33 13 -25 0z"/>
<path d="M8605 1020 c3 -5 12 -7 20 -3 21 7 19 13 -6 13 -11 0 -18 -4 -14 -10z"/>
<path d="M10930 1026 c0 -5 104 -36 117 -35 11 1 -88 37 -104 38 -7 1 -13 -1
-13 -3z"/>
<path d="M8548 1013 c6 -2 18 -2 25 0 6 3 1 5 -13 5 -14 0 -19 -2 -12 -5z"/>
<path d="M8450 1000 c-34 -7 -34 -7 -5 -8 17 0 44 4 60 8 27 7 27 8 5 8 -14
-1 -41 -4 -60 -8z"/>
<path d="M6280 990 c8 -5 20 -10 25 -10 6 0 3 5 -5 10 -8 5 -19 10 -25 10 -5
0 -3 -5 5 -10z"/>
<path d="M8315 980 l-40 -7 35 -1 c19 0 46 4 60 8 32 10 2 10 -55 0z"/>
<path d="M6365 956 c60 -31 75 -37 75 -31 0 7 -71 41 -100 49 -14 4 -2 -4 25
-18z"/>
<path d="M11130 966 c20 -8 51 -16 70 -19 19 -4 8 2 -25 13 -67 22 -100 26
-45 6z"/>
<path d="M532 945 c0 -16 3 -39 8 -50 l9 -20 -1 20 c0 11 -4 34 -8 50 l-8 30
0 -30z"/>
<path d="M8150 960 l-45 -7 45 -1 c25 0 56 4 70 8 l25 8 -25 0 c-14 -1 -45 -4
-70 -8z"/>
<path d="M3043 953 c247 -2 647 -2 890 0 243 1 42 2 -448 2 -490 0 -688 -1
-442 -2z"/>
<path d="M7995 940 l-40 -7 50 -1 c28 0 59 3 70 8 17 7 15 8 -10 8 -16 -1 -48
-4 -70 -8z"/>
<path d="M1625 928 c-12 -39 -15 -89 -6 -83 6 3 11 24 11 45 0 32 4 39 23 43
l22 4 -23 2 c-12 0 -24 -5 -27 -11z"/>
<path d="M2577 920 c3 -11 7 -20 9 -20 2 0 4 9 4 20 0 11 -4 20 -9 20 -5 0 -7
-9 -4 -20z"/>
<path d="M4970 935 c0 -7 61 -37 66 -33 2 3 -12 12 -31 21 -19 9 -35 15 -35
12z"/>
<path d="M11248 933 c7 -3 16 -2 19 1 4 3 -2 6 -13 5 -11 0 -14 -3 -6 -6z"/>
<path d="M1704 922 c3 -5 31 -10 63 -11 31 -1 55 0 52 2 -9 9 -120 17 -115 9z"/>
<path d="M7865 920 l-30 -8 35 0 c19 0 46 4 60 8 24 8 24 8 -5 8 -16 0 -43 -4
-60 -8z"/>
<path d="M10120 910 c6 -11 13 -20 16 -20 2 0 0 9 -6 20 -6 11 -13 20 -16 20
-2 0 0 -9 6 -20z"/>
<path d="M11290 922 c8 -5 33 -12 55 -16 48 -7 19 8 -35 18 -23 5 -30 4 -20
-2z"/>
<path d="M197 885 c3 -22 7 -42 9 -44 8 -9 2 45 -6 64 -7 14 -8 8 -3 -20z"/>
<path d="M6450 916 c0 -3 19 -18 43 -34 23 -17 67 -54 96 -83 40 -40 46 -44
21 -14 -47 57 -160 149 -160 131z"/>
<path d="M1855 901 c17 -5 44 -9 62 -10 21 -1 33 -7 36 -18 4 -14 5 -12 6 5 1
15 -5 22 -18 22 -10 0 -40 2 -67 5 -38 3 -42 2 -19 -4z"/>
<path d="M7770 903 c-8 -2 -22 -7 -30 -10 -8 -3 -28 -7 -44 -9 -16 -3 -32 -7
-35 -10 -7 -7 58 1 84 10 53 19 75 36 25 19z"/>
<path d="M5051 896 c8 -8 79 -35 79 -30 0 3 -16 12 -35 20 -33 14 -53 18 -44
10z"/>
<path d="M11398 893 c7 -3 16 -2 19 1 4 3 -2 6 -13 5 -11 0 -14 -3 -6 -6z"/>
<path d="M10159 852 c11 -15 50 -56 88 -92 l68 -65 -65 70 c-36 38 -68 71 -72
73 -5 2 -8 10 -8 17 0 7 -7 16 -16 19 -12 5 -11 0 5 -22z"/>
<path d="M11499 865 c18 -8 38 -15 45 -14 15 1 -46 28 -64 28 -8 0 0 -6 19
-14z"/>
<path d="M550 854 c0 -10 5 -26 10 -34 8 -11 9 -7 4 15 -8 37 -14 45 -14 19z"/>
<path d="M2590 829 c0 -24 5 -51 10 -59 6 -10 7 3 3 40 -7 69 -13 77 -13 19z"/>
<path d="M5146 861 c12 -11 144 -54 149 -49 3 2 -32 16 -77 31 -45 14 -77 23
-72 18z"/>
<path d="M7625 860 c-3 -5 -2 -10 4 -10 5 0 13 5 16 10 3 6 2 10 -4 10 -5 0
-13 -4 -16 -10z"/>
<path d="M11565 850 c3 -5 20 -12 38 -15 17 -4 39 -14 48 -21 10 -9 24 -12 35
-7 16 6 16 8 -6 14 -14 4 -46 14 -72 22 -27 8 -46 11 -43 7z"/>
<path d="M2192 825 c-1 -16 3 -48 7 -70 l9 -40 0 40 c0 22 -4 54 -8 70 l-8 30
0 -30z"/>
<path d="M7548 832 c-38 -23 -36 -38 2 -15 17 9 30 21 30 25 0 10 0 10 -32
-10z"/>
<path d="M1941 824 c0 -11 3 -14 6 -6 3 7 2 16 -1 19 -3 4 -6 -2 -5 -13z"/>
<path d="M1601 814 c0 -11 3 -14 6 -6 3 7 2 16 -1 19 -3 4 -6 -2 -5 -13z"/>
<path d="M5325 800 c27 -12 43 -12 25 0 -8 5 -22 9 -30 9 -10 0 -8 -3 5 -9z"/>
<path d="M570 780 c0 -11 4 -20 9 -20 5 0 7 9 4 20 -3 11 -7 20 -9 20 -2 0 -4
-9 -4 -20z"/>
<path d="M1931 784 c0 -11 3 -14 6 -6 3 7 2 16 -1 19 -3 4 -6 -2 -5 -13z"/>
<path d="M11765 785 c17 -8 39 -14 50 -14 13 0 8 5 -15 14 -46 18 -74 17 -35
0z"/>
<path d="M5410 775 c19 -7 44 -14 55 -14 11 0 2 6 -20 14 -50 18 -82 18 -35 0z"/>
<path d="M7353 731 c-33 -21 -64 -44 -67 -50 -4 -6 13 2 37 19 25 16 51 30 59
30 7 0 19 9 26 20 7 11 11 20 9 20 -2 0 -31 -18 -64 -39z"/>
<path d="M236 740 c3 -14 11 -32 16 -40 6 -10 7 -7 2 10 -3 14 -11 32 -16 40
-6 10 -7 7 -2 -10z"/>
<path d="M1576 744 c-4 -9 -4 -19 -1 -22 2 -3 7 3 11 12 4 9 4 19 1 22 -2 3
-7 -3 -11 -12z"/>
<path d="M1917 746 c-4 -10 -7 -25 -6 -34 0 -11 4 -9 10 7 5 13 8 29 6 35 -2
5 -6 2 -10 -8z"/>
<path d="M11871 756 c11 -9 119 -43 119 -37 0 4 -24 15 -53 24 -52 16 -75 21
-66 13z"/>
<path d="M590 746 c0 -12 39 -84 49 -91 6 -3 -2 16 -16 42 -30 55 -33 59 -33
49z"/>
<path d="M9025 740 c-26 -11 -49 -19 -110 -41 -40 -15 -43 -17 -15 -12 35 5
160 52 160 59 0 6 -12 4 -35 -6z"/>
<path d="M2612 720 c0 -14 2 -19 5 -12 2 6 2 18 0 25 -3 6 -5 1 -5 -13z"/>
<path d="M5558 733 c7 -3 16 -2 19 1 4 3 -2 6 -13 5 -11 0 -14 -3 -6 -6z"/>
<path d="M6661 706 c12 -20 23 -36 25 -36 7 0 -25 58 -36 65 -5 3 -1 -10 11
-29z"/>
<path d="M9070 590 c0 -84 2 -151 5 -149 7 7 8 290 1 296 -3 4 -6 -63 -6 -147z"/>
<path d="M5600 726 c0 -2 9 -6 20 -9 11 -3 20 -1 20 4 0 5 -9 9 -20 9 -11 0
-20 -2 -20 -4z"/>
<path d="M5656 711 c12 -11 145 -43 151 -37 3 3 -8 8 -23 12 -16 3 -53 12 -83
19 -30 8 -50 10 -45 6z"/>
<path d="M12010 710 c8 -5 20 -10 25 -10 6 0 3 5 -5 10 -8 5 -19 10 -25 10 -5
0 -3 -5 5 -10z"/>
<path d="M1550 682 c-8 -15 -16 -30 -18 -34 -2 -5 2 -8 7 -8 6 0 11 8 11 18 0
10 5 23 12 30 6 6 9 14 7 17 -3 3 -12 -7 -19 -23z"/>
<path d="M2211 694 c0 -11 3 -14 6 -6 3 7 2 16 -1 19 -3 4 -6 -2 -5 -13z"/>
<path d="M12095 675 c28 -15 57 -28 65 -30 8 -2 24 -6 35 -9 11 -4 -7 7 -41
23 -78 37 -124 49 -59 16z"/>
<path d="M1897 683 c-4 -3 -7 -13 -7 -22 1 -13 3 -13 11 2 11 19 8 33 -4 20z"/>
<path d="M2621 674 c0 -11 3 -14 6 -6 3 7 2 16 -1 19 -3 4 -6 -2 -5 -13z"/>
<path d="M10340 682 c0 -4 14 -16 30 -25 17 -10 30 -16 30 -14 0 2 -13 13 -30
25 -16 13 -30 19 -30 14z"/>
<path d="M260 676 c0 -11 50 -106 55 -106 3 0 -7 24 -21 53 -28 55 -34 65 -34
53z"/>
<path d="M8815 673 c-60 -12 -145 -37 -141 -40 5 -5 186 37 186 43 0 5 -15 4
-45 -3z"/>
<path d="M2222 650 c0 -14 2 -19 5 -12 2 6 2 18 0 25 -3 6 -5 1 -5 -13z"/>
<path d="M5940 630 c68 -21 126 -37 128 -35 6 6 -216 75 -241 75 -6 -1 44 -18
113 -40z"/>
<path d="M7244 648 l-19 -23 23 19 c12 11 22 21 22 23 0 8 -8 2 -26 -19z"/>
<path d="M6690 651 c0 -5 4 -12 9 -15 5 -3 17 -36 27 -73 10 -36 20 -61 22
-55 5 15 -36 140 -49 147 -5 4 -9 2 -9 -4z"/>
<path d="M2630 645 c0 -5 5 -17 10 -25 5 -8 10 -10 10 -5 0 6 -5 17 -10 25 -5
8 -10 11 -10 5z"/>
<path d="M10410 635 c0 -6 96 -55 107 -55 9 0 -63 43 -89 53 -10 3 -18 4 -18
2z"/>
<path d="M1465 576 c-27 -29 -63 -62 -80 -75 -24 -18 -25 -20 -5 -10 37 18 91
64 123 104 40 51 20 40 -38 -19z"/>
<path d="M8585 620 c-13 -6 -5 -7 25 -3 25 3 47 7 49 9 9 8 -55 2 -74 -6z"/>
<path d="M12235 616 c11 -9 28 -23 38 -31 9 -8 23 -15 29 -15 16 0 2 12 -47
39 -22 13 -31 15 -20 7z"/>
<path d="M670 615 c1 -15 21 -37 68 -73 23 -18 42 -28 42 -22 0 5 -4 10 -8 10
-5 0 -30 21 -55 47 -26 26 -47 43 -47 38z"/>
<path d="M1855 587 c-27 -44 -29 -51 -16 -43 12 8 44 66 39 71 -2 2 -12 -11
-23 -28z"/>
<path d="M2231 610 c0 -8 4 -24 9 -35 5 -13 9 -14 9 -5 0 8 -4 24 -9 35 -5 13
-9 14 -9 5z"/>
<path d="M3946 612 c-3 -5 8 -6 25 -4 16 2 29 6 29 8 0 8 -49 4 -54 -4z"/>
<path d="M7185 590 c-16 -16 -24 -30 -19 -30 6 0 20 14 32 30 13 17 21 30 19
30 -2 0 -16 -13 -32 -30z"/>
<path d="M4045 601 c30 -9 122 -14 114 -7 -2 2 -35 6 -74 9 -44 4 -59 3 -40
-2z"/>
<path d="M8523 603 c9 -2 23 -2 30 0 6 3 -1 5 -18 5 -16 0 -22 -2 -12 -5z"/>
<path d="M8478 593 c7 -3 16 -2 19 1 4 3 -2 6 -13 5 -11 0 -14 -3 -6 -6z"/>
<path d="M2650 585 c0 -15 55 -119 90 -170 32 -47 134 -151 162 -166 9 -5 -22
30 -71 78 -69 70 -97 107 -134 178 -25 50 -46 85 -47 80z"/>
<path d="M4205 579 c22 -4 54 -8 70 -7 22 0 19 3 -15 9 -60 10 -108 9 -55 -2z"/>
<path d="M6090 580 c20 -13 33 -13 25 0 -3 6 -14 10 -23 10 -15 0 -15 -2 -2
-10z"/>
<path d="M8403 583 c9 -2 23 -2 30 0 6 3 -1 5 -18 5 -16 0 -22 -2 -12 -5z"/>
<path d="M8358 573 c7 -3 16 -2 19 1 4 3 -2 6 -13 5 -11 0 -14 -3 -6 -6z"/>
<path d="M4332 562 c13 -5 15 -11 8 -22 -5 -8 -10 -22 -9 -30 0 -8 6 0 14 19
19 42 19 41 -7 40 -19 0 -20 -2 -6 -7z"/>
<path d="M6150 552 c91 -62 149 -145 151 -219 2 -32 3 -34 6 -9 5 29 -16 116
-28 116 -3 0 -11 11 -17 24 -10 23 -112 107 -129 105 -4 0 3 -8 17 -17z"/>
<path d="M8225 560 c-12 -5 1 -6 35 -3 30 3 57 7 59 9 9 8 -75 2 -94 -6z"/>
<path d="M10589 550 c24 -11 46 -20 50 -20 12 1 -64 39 -79 39 -8 0 5 -8 29
-19z"/>
<path d="M12329 556 c13 -16 51 -41 51 -33 0 2 -15 14 -32 27 -21 15 -28 17
-19 6z"/>
<path d="M334 532 c8 -16 23 -35 32 -43 14 -11 12 -4 -6 29 -26 46 -49 59 -26
14z"/>
<path d="M2251 543 c0 -4 4 -17 9 -28 8 -19 9 -19 9 2 1 12 -3 25 -9 28 -5 3
-10 3 -9 -2z"/>
<path d="M7139 531 c-31 -31 -51 -69 -39 -76 6 -3 9 -3 8 2 -3 12 23 56 41 70
9 6 14 13 11 16 -3 2 -12 -3 -21 -12z"/>
<path d="M8133 543 c9 -2 23 -2 30 0 6 3 -1 5 -18 5 -16 0 -22 -2 -12 -5z"/>
<path d="M3875 462 c-53 -103 -166 -217 -255 -260 -36 -18 -99 -41 -140 -51
l-75 -20 80 0 c48 -1 75 3 66 8 -16 10 -16 10 79 57 71 36 174 131 218 202 33
52 74 133 70 137 -2 2 -21 -31 -43 -73z"/>
<path d="M8088 533 c7 -3 16 -2 19 1 4 3 -2 6 -13 5 -11 0 -14 -3 -6 -6z"/>
<path d="M1790 483 c-19 -27 -25 -40 -14 -31 18 16 59 78 51 78 -2 0 -19 -21
-37 -47z"/>
<path d="M7980 518 c-19 -5 -52 -14 -74 -19 -21 -6 -36 -12 -35 -14 2 -1 49 8
104 20 55 13 87 23 70 23 -16 0 -46 -4 -65 -10z"/>
<path d="M10660 526 c0 -2 7 -6 15 -10 8 -3 15 -1 15 4 0 6 -7 10 -15 10 -8 0
-15 -2 -15 -4z"/>
<path d="M794 502 c6 -11 96 -55 101 -50 3 2 -21 16 -51 31 -31 15 -53 24 -50
19z"/>
<path d="M10740 495 c46 -18 64 -17 25 0 -16 8 -37 14 -45 14 -8 0 1 -7 20
-14z"/>
<path d="M12426 469 c16 -20 31 -34 33 -32 3 2 -10 18 -29 36 l-34 32 30 -36z"/>
<path d="M4299 428 c-32 -84 -32 -85 -20 -68 15 20 53 122 48 127 -2 2 -15
-25 -28 -59z"/>
<path d="M6754 355 c0 -123 1 -132 9 -74 4 37 4 100 -1 140 -8 68 -9 63 -8
-66z"/>
<path d="M7823 479 c-18 -5 -35 -14 -38 -19 -7 -11 55 8 70 21 10 10 11 10
-32 -2z"/>
<path d="M10800 480 c0 -8 82 -32 88 -26 1 2 -18 10 -43 18 -25 9 -45 12 -45
8z"/>
<path d="M390 459 c0 -11 160 -159 173 -159 6 0 -5 12 -23 28 -19 15 -61 52
-92 83 -32 31 -58 52 -58 48z"/>
<path d="M1305 460 c-16 -7 -17 -9 -3 -9 9 -1 20 4 23 9 7 11 7 11 -20 0z"/>
<path d="M2281 455 c0 -5 8 -26 19 -45 11 -19 19 -30 19 -25 0 6 -8 26 -19 45
-11 19 -19 31 -19 25z"/>
<path d="M918 443 c7 -3 16 -2 19 1 4 3 -2 6 -13 5 -11 0 -14 -3 -6 -6z"/>
<path d="M1240 440 c-21 -7 -21 -8 -5 -9 11 0 27 4 35 9 18 11 5 11 -30 0z"/>
<path d="M7077 443 c-4 -3 -7 -11 -7 -17 0 -6 5 -5 12 2 6 6 9 14 7 17 -3 3
-9 2 -12 -2z"/>
<path d="M7720 430 c-19 -11 -30 -19 -25 -19 6 0 26 8 45 19 19 11 31 19 25
19 -5 0 -26 -8 -45 -19z"/>
<path d="M10908 443 c7 -3 16 -2 19 1 4 3 -2 6 -13 5 -11 0 -14 -3 -6 -6z"/>
<path d="M958 433 c7 -3 16 -2 19 1 4 3 -2 6 -13 5 -11 0 -14 -3 -6 -6z"/>
<path d="M1025 419 c41 -9 126 -9 150 0 12 5 -22 8 -80 8 -60 -1 -88 -3 -70
-8z"/>
<path d="M1709 393 c-19 -21 -54 -55 -79 -77 l-45 -38 46 32 c53 36 138 120
123 120 -6 0 -26 -17 -45 -37z"/>
<path d="M4939 411 c13 -3 28 -15 32 -26 4 -11 8 -15 8 -8 2 27 -12 43 -38 42
l-26 -1 24 -7z"/>
<path d="M9063 365 c0 -33 2 -45 4 -27 2 18 2 45 0 60 -2 15 -4 0 -4 -33z"/>
<path d="M12480 412 c0 -5 12 -19 27 -33 l26 -24 -23 33 c-25 33 -30 38 -30
24z"/>
<path d="M4830 400 l-35 -7 45 -2 c25 0 52 4 60 9 12 8 10 9 -10 9 -14 -1 -41
-5 -60 -9z"/>
<path d="M7036 358 c-28 -64 -50 -138 -42 -145 3 -3 8 8 12 23 9 44 44 137 56
152 6 7 8 15 5 19 -4 3 -18 -19 -31 -49z"/>
<path d="M11041 406 c2 -2 18 -6 34 -10 22 -5 26 -4 15 4 -14 9 -59 15 -49 6z"/>
<path d="M7659 390 c-9 -5 -29 -26 -44 -47 -28 -38 -28 -37 18 7 55 53 59 59
26 40z"/>
<path d="M4700 380 l-35 -7 35 -1 c19 0 49 4 65 8 l30 8 -30 0 c-16 -1 -46 -4
-65 -8z"/>
<path d="M11135 380 c11 -5 27 -9 35 -9 9 0 8 4 -5 9 -11 5 -27 9 -35 9 -9 0
-8 -4 5 -9z"/>
<path d="M2320 362 c0 -10 85 -140 106 -162 12 -12 14 -12 14 0 0 8 -15 29
-32 45 -17 17 -39 49 -50 72 -18 40 -38 64 -38 45z"/>
<path d="M4575 361 c-39 -6 -40 -7 -38 -46 1 -22 12 -72 25 -110 l23 -70 243
-3 c133 -1 242 1 242 5 -1 13 -59 119 -59 108 0 -5 8 -28 19 -50 11 -22 19
-43 20 -47 0 -3 -103 -7 -228 -7 l-229 -2 -21 68 c-12 37 -24 85 -28 106 l-6
37 38 1 c22 0 48 4 59 9 l20 9 -20 -1 c-11 -1 -38 -4 -60 -7z"/>
<path d="M11191 366 c8 -9 212 -57 217 -52 6 6 4 7 -113 35 -90 21 -112 25
-104 17z"/>
<path d="M4976 340 c4 -14 13 -38 20 -55 11 -24 13 -25 8 -5 -4 14 -13 39 -20
55 -11 24 -13 25 -8 5z"/>
<path d="M4210 254 c-30 -47 -65 -91 -77 -99 -17 -12 -78 -15 -295 -18 l-273
-2 282 -3 282 -2 34 43 c41 49 110 157 105 162 -2 2 -28 -35 -58 -81z"/>
<path d="M12561 288 c16 -29 29 -61 29 -70 0 -10 4 -18 10 -18 15 0 -38 121
-59 134 -5 4 4 -18 20 -46z"/>
<path d="M11440 300 c34 -11 60 -11 35 0 -11 5 -29 8 -40 8 -16 0 -15 -2 5 -8z"/>
<path d="M583 293 c9 -15 86 -59 117 -67 14 -4 5 4 -20 17 -25 13 -58 32 -75
43 -16 10 -26 14 -22 7z"/>
<path d="M7552 254 c-31 -63 -23 -65 10 -3 14 27 23 49 19 49 -4 0 -17 -21
-29 -46z"/>
<path d="M9052 275 c0 -16 2 -22 5 -12 2 9 2 23 0 30 -3 6 -5 -1 -5 -18z"/>
<path d="M11515 280 c28 -12 47 -12 40 0 -3 6 -18 10 -33 9 -24 0 -25 -1 -7
-9z"/>
<path d="M6301 255 c0 -16 -4 -41 -6 -55 l-6 -25 11 25 c6 13 9 38 7 55 l-4
30 -2 -30z"/>
<path d="M9580 245 c-4 -61 -7 -81 -14 -93 -7 -12 -494 -16 -512 -4 -6 4 -13
14 -16 22 -3 9 -7 5 -10 -13 l-5 -27 281 2 281 3 3 63 c2 35 1 68 -2 75 -2 7
-5 -6 -6 -28z"/>
<path d="M1502 243 c-29 -14 -51 -27 -49 -30 6 -5 107 44 107 52 0 6 5 8 -58
-22z"/>
<path d="M11585 260 c11 -5 27 -9 35 -9 9 0 8 4 -5 9 -11 5 -27 9 -35 9 -9 0
-8 -4 5 -9z"/>
<path d="M11655 240 c28 -12 37 -12 30 0 -3 6 -16 10 -28 9 -21 0 -21 -1 -2
-9z"/>
<path d="M2937 229 c13 -16 77 -51 126 -69 16 -5 25 -14 22 -20 -4 -6 20 -10
67 -9 l73 1 -60 12 c-33 7 -77 20 -97 29 -21 9 -38 14 -38 11 0 -2 -17 6 -37
19 -67 42 -69 43 -56 26z"/>
<path d="M9042 210 c0 -14 2 -19 5 -12 2 6 2 18 0 25 -3 6 -5 1 -5 -13z"/>
<path d="M11720 220 c8 -5 20 -10 25 -10 6 0 3 5 -5 10 -8 5 -19 10 -25 10 -5
0 -3 -5 5 -10z"/>
<path d="M737 209 c7 -7 15 -10 18 -7 3 3 -2 9 -12 12 -14 6 -15 5 -6 -5z"/>
<path d="M1403 200 c-34 -14 -28 -21 7 -9 17 6 30 13 30 15 0 6 -12 4 -37 -6z"/>
<path d="M800 186 c19 -8 44 -15 55 -15 l20 0 -20 8 c-11 5 -36 11 -55 15
l-35 6 35 -14z"/>
<path d="M6732 171 l-11 -31 -215 0 c-199 0 -216 1 -216 18 0 14 -2 15 -10 2
-5 -8 -10 -18 -10 -22 0 -5 105 -8 234 -8 l234 0 7 31 c9 41 0 48 -13 10z"/>
<path d="M6982 180 c0 -14 2 -19 5 -12 2 6 2 18 0 25 -3 6 -5 1 -5 -13z"/>
<path d="M1325 180 c-22 -5 -62 -12 -90 -16 -27 -3 -44 -9 -36 -12 18 -6 160
19 167 29 3 5 4 9 2 8 -2 -1 -21 -5 -43 -9z"/>
<path d="M11827 179 c7 -7 15 -10 18 -7 3 3 -2 9 -12 12 -14 6 -15 5 -6 -5z"/>
<path d="M12611 168 l-1 -27 -335 -1 c-278 0 -341 2 -371 15 -50 21 -56 18
-14 -5 33 -18 59 -19 388 -20 372 0 362 -1 342 45 -8 18 -9 17 -9 -7z"/>
<path d="M2460 155 l23 -25 295 0 c163 0 293 2 291 5 -3 2 -134 5 -293 5 -270
2 -289 3 -304 21 -9 10 -21 19 -26 19 -5 0 1 -11 14 -25z"/>
<path d="M915 159 c22 -4 58 -8 80 -7 l40 0 -40 9 c-22 4 -58 8 -80 7 l-40 0
40 -9z"/>
<path d="M7510 149 c0 -7 -82 -9 -265 -7 -146 2 -265 0 -265 -4 0 -5 122 -8
270 -8 233 0 270 2 270 15 0 8 -2 15 -5 15 -3 0 -5 -5 -5 -11z"/>
<path d="M1068 143 c17 -2 47 -2 65 0 17 2 3 4 -33 4 -36 0 -50 -2 -32 -4z"/>
</g>
</svg>
